<?xml version="1.0" encoding="UTF-8"?>
<svg id="Layer_1" data-name="Layer 1" xmlns="http://www.w3.org/2000/svg" viewBox="0 0 6221.11 1080">
  <path d="M540,120c56.75,0,111.74,11.09,163.45,32.96,50,21.15,94.93,51.45,133.54,90.06,38.61,38.61,68.91,83.54,90.06,133.54,21.87,51.7,32.96,106.69,32.96,163.45s-11.09,111.74-32.96,163.45c-21.15,50-51.45,94.93-90.06,133.54-38.61,38.61-83.54,68.91-133.54,90.06-51.7,21.87-106.69,32.96-163.45,32.96s-111.74-11.09-163.45-32.96c-50-21.15-94.93-51.45-133.54-90.06-38.61-38.61-68.91-83.54-90.06-133.54-21.87-51.7-32.96-106.69-32.96-163.45s11.09-111.74,32.96-163.45c21.15-50,51.45-94.93,90.06-133.54,38.61-38.61,83.54-68.91,133.54-90.06,51.7-21.87,106.69-32.96,163.45-32.96M540,0h0C241.77,0,0,241.77,0,540h0c0,298.23,241.77,540,540,540h0c298.23,0,540-241.77,540-540h0C1080,241.77,838.23,0,540,0h0Z"/>
  <path d="M1443.52,758.67v-363.1h-180.45v-97.83h483.28v97.83h-180.04v363.1h-122.79Z"/>
  <path d="M1682.17,595.9c0-27.82,9.54-54.75,28.62-80.79,19.08-26.03,46.11-45.91,81.1-59.62,34.98-13.71,74.05-20.57,117.19-20.57,66.64,0,121.27,15.55,163.86,46.65,42.58,31.11,63.88,70.41,63.88,117.9s-21.51,87.6-64.51,119.1c-43.01,31.5-97.14,47.25-162.41,47.25-40.38,0-78.89-6.56-115.53-19.68-36.65-13.12-64.51-32.35-83.59-57.69-19.08-25.34-28.62-56.19-28.62-92.56ZM1801.64,600.37c0,31.4,25.93,71.5,107.65,71.5s107.65-40.3,107.65-72.1-26.73-72.29-107.54-72.29-107.75,41.49-107.75,72.89Z"/>
  <path d="M2219.38,442.07h107.44v43.23c38.44-33.58,84.21-50.38,137.31-50.38,28.21,0,52.68,4.17,73.42,12.52,20.74,8.35,37.75,20.97,51.02,37.86,19.35-16.89,40.24-29.51,62.64-37.86,22.4-8.35,46.32-12.52,71.77-12.52,32.36,0,59.74,4.72,82.14,14.16,22.4,9.44,39.13,23.3,50.19,41.59,8.02,13.52,12.03,35.38,12.03,65.59v202.42h-116.57v-136.98c0-31.4-4.01-51.67-12.03-60.82-10.79-11.92-27.38-12.89-49.78-12.89-16.32,0-31.67,3.58-46.05,10.73-14.38,7.15-27.75,17.64-34.11,31.45-6.37,13.82-6.54,12.62-6.54,42.43v126.07h-116.57v-125.06c0-30.8-2.07-50.68-6.22-59.62-4.15-8.94-10.58-15.6-19.29-19.97-8.71-4.37-15.84-4.06-30.77-4.06-17.98,0-38.85,5.98-53.23,12.94-14.38,6.96-27.68,16.99-33.91,30.11-6.22,13.12-6.33,11.88-6.33,42.28v123.39h-116.57v-316.6Z"/>
  <path d="M3240.61,657.9l117.4,3.34c-11.53,39.2-41.76,64.58-73.98,80.58-32.22,16-72.53,24-120.92,24-76.61,0-133.3-17.98-170.08-53.96-29.04-28.81-43.56-65.18-43.56-109.11,0-52.47,19.08-93.56,57.25-123.27,38.16-29.71,86.42-44.57,144.78-44.57,65.54,0,117.25,15.55,155.15,46.65,37.89,31.11,55.28,90.52,53.62,154.71h-285.36c6.64,30.27,30.42,39.59,88.43,41.78,18.24.69,66.05-1.42,77.28-20.16ZM3238.45,560.04c0-10.64-28.05-40.02-79.9-40.02s-86.33,20.12-86.33,40.02h166.23Z"/>
  <path d="M3451.84,758.67v-437.04h116.57v206.57l108.02-86.13h171.99l-139.75,111.49,168.15,205.11h-143.3l-110.76-142.2-54.34,40.84v101.36h-116.57Z"/>
  <path d="M4163.68,758.67v-437.04h183.77l110.34,298.11,109.1-298.11h184.18v437.04h-114.08v-274.73l-111.42,274.73h-135.68l-112.14-271.23v271.23h-114.08Z"/>
  <path d="M4845.25,595.9c0-27.82,9.54-54.75,28.62-80.79,19.08-26.03,46.11-45.91,81.1-59.62,34.98-13.71,74.05-20.57,117.19-20.57,66.64,0,121.27,15.55,163.86,46.65,42.58,31.11,63.88,70.41,63.88,117.9s-21.51,87.6-64.51,119.1c-43.01,31.5-97.14,47.25-162.41,47.25-40.38,0-78.89-6.56-115.53-19.68-36.65-13.12-64.51-32.35-83.59-57.69-19.08-25.34-28.62-56.19-28.62-92.56ZM4964.72,600.37c0,31.4,10.37,55.45,31.11,72.14s46.32,25.04,76.74,25.04,55.93-8.35,76.54-25.04c20.6-16.69,30.9-40.94,30.9-72.74s-10.31-54.85-30.9-71.55c-20.6-16.69-46.12-25.04-76.54-25.04s-56,8.35-76.74,25.04c-20.74,16.69-31.11,40.74-31.11,72.14ZM5013.67,403.31l57.25-89.14h165.25l-100.13,89.14h-122.36Z"/>
  <path d="M5473.3,758.67l-139.38-316.6h130.15l64.7,178.95,64.7-178.95h139.93l58.08,185.61,69.81-185.61h129.31l-141.46,316.6h-133.8l-54.12-177.43-60.23,177.43h-127.69Z"/>
  <path d="M6051.99,399.14v-77.51h116.57v77.51h-116.57ZM6051.99,758.67v-316.6h116.57v316.6h-116.57Z"/>
  <path d="M862.79,594.78c10.96-26.28-89.72-40.94-107.95-40.43-.08-11.78,2.03-23.45-2.83-35.59,11.9-6.5,92.9-29.86,101.75-39.28,30.26-32.18-145.44-72.52-150.71-117.41,19.2-11.94,28.54-35.5,22.2-58.34-18.23-65.7-197.06-81.3-287.7-48.7-94.92,34.14-152.51,133.41-145.41,185.34,3.17,23.18,27.15,36.97,49.42,36.97,4.83,0,24.37-2.42,24.37-2.42,2.31,20.07,15.01,46.03,26.78,56.29-16.83,22.9-166.86-19.03-170.23,21.4-2.87,34.4,123.72,100.06,151.08,147.13,0,0-65.19,53.64-19.81,92.05,57.56,48.72,99-24.22,99-24.22,11.46,4.06,31.46,20.98,77.6,21.7,59.12.92,67.69-18.22,69.93-15.14,27.73,38.15,58.69,63.59,92.98,46.11,40.58-20.69,39.78-46.15,5.3-109.51,0,0,2.09-9.81,29-33.15,51.76-44.88,125.34-59.05,135.24-82.8Z"/>
  <path d="M4845.04,592.32c0-27.82,9.54-54.75,28.62-80.79,19.08-26.03,46.11-45.91,81.1-59.62,34.98-13.71,74.05-20.57,117.19-20.57,66.64,0,121.27,15.55,163.86,46.65,42.58,31.11,63.88,70.41,63.88,117.9s-21.51,87.6-64.51,119.1c-43.01,31.5-97.14,47.25-162.41,47.25-40.38,0-78.89-6.56-115.53-19.68-36.65-13.12-64.51-32.35-83.59-57.69-19.08-25.34-28.62-56.19-28.62-92.56ZM4964.51,596.79c0,31.4,25.93,71.5,107.65,71.5s107.65-40.3,107.65-72.1-26.73-72.29-107.54-72.29-107.75,41.49-107.75,72.89Z"/>
</svg>